%TF.GenerationSoftware,KiCad,Pcbnew,9.0.2*%
%TF.CreationDate,2025-05-22T16:26:55+02:00*%
%TF.ProjectId,Untitled,556e7469-746c-4656-942e-6b696361645f,rev?*%
%TF.SameCoordinates,Original*%
%TF.FileFunction,Copper,L1,Top*%
%TF.FilePolarity,Positive*%
%FSLAX46Y46*%
G04 Gerber Fmt 4.6, Leading zero omitted, Abs format (unit mm)*
G04 Created by KiCad (PCBNEW 9.0.2) date 2025-05-22 16:26:55*
%MOMM*%
%LPD*%
G01*
G04 APERTURE LIST*
G04 Aperture macros list*
%AMRoundRect*
0 Rectangle with rounded corners*
0 $1 Rounding radius*
0 $2 $3 $4 $5 $6 $7 $8 $9 X,Y pos of 4 corners*
0 Add a 4 corners polygon primitive as box body*
4,1,4,$2,$3,$4,$5,$6,$7,$8,$9,$2,$3,0*
0 Add four circle primitives for the rounded corners*
1,1,$1+$1,$2,$3*
1,1,$1+$1,$4,$5*
1,1,$1+$1,$6,$7*
1,1,$1+$1,$8,$9*
0 Add four rect primitives between the rounded corners*
20,1,$1+$1,$2,$3,$4,$5,0*
20,1,$1+$1,$4,$5,$6,$7,0*
20,1,$1+$1,$6,$7,$8,$9,0*
20,1,$1+$1,$8,$9,$2,$3,0*%
G04 Aperture macros list end*
%TA.AperFunction,ComponentPad*%
%ADD10C,2.000000*%
%TD*%
%TA.AperFunction,SMDPad,CuDef*%
%ADD11RoundRect,0.152400X1.063600X0.609600X-1.063600X0.609600X-1.063600X-0.609600X1.063600X-0.609600X0*%
%TD*%
%TA.AperFunction,ComponentPad*%
%ADD12C,1.524000*%
%TD*%
%TA.AperFunction,SMDPad,CuDef*%
%ADD13RoundRect,0.152400X-1.063600X-0.609600X1.063600X-0.609600X1.063600X0.609600X-1.063600X0.609600X0*%
%TD*%
%TA.AperFunction,ViaPad*%
%ADD14C,2.100000*%
%TD*%
%TA.AperFunction,Conductor*%
%ADD15C,0.800000*%
%TD*%
%TA.AperFunction,Conductor*%
%ADD16C,0.200000*%
%TD*%
G04 APERTURE END LIST*
D10*
%TO.P,REF\u002A\u002A,1*%
%TO.N,N/C*%
X107920000Y-63000000D03*
%TO.P,REF\u002A\u002A,2*%
X110460000Y-63000000D03*
%TO.P,REF\u002A\u002A,3*%
X113000000Y-63000000D03*
%TD*%
D11*
%TO.P,REF\u002A\u002A,1*%
%TO.N,N/C*%
X113425000Y-71500000D03*
D12*
X114260000Y-71500000D03*
D11*
%TO.P,REF\u002A\u002A,2*%
X113425000Y-74040000D03*
D12*
X114260000Y-74040000D03*
D11*
%TO.P,REF\u002A\u002A,3*%
X113425000Y-76580000D03*
D12*
X114260000Y-76580000D03*
D11*
%TO.P,REF\u002A\u002A,4*%
X113425000Y-79120000D03*
D12*
X114260000Y-79120000D03*
D11*
%TO.P,REF\u002A\u002A,5*%
X113425000Y-81660000D03*
D12*
X114260000Y-81660000D03*
D11*
%TO.P,REF\u002A\u002A,6*%
X113425000Y-84200000D03*
D12*
X114260000Y-84200000D03*
D11*
%TO.P,REF\u002A\u002A,7*%
X113425000Y-86740000D03*
D12*
X114260000Y-86740000D03*
%TO.P,REF\u002A\u002A,8*%
X129500000Y-86740000D03*
D13*
X130335000Y-86740000D03*
D12*
%TO.P,REF\u002A\u002A,9*%
X129500000Y-84200000D03*
D13*
X130335000Y-84200000D03*
D12*
%TO.P,REF\u002A\u002A,10*%
X129500000Y-81660000D03*
D13*
X130335000Y-81660000D03*
D12*
%TO.P,REF\u002A\u002A,11*%
X129500000Y-79120000D03*
D13*
X130335000Y-79120000D03*
D12*
%TO.P,REF\u002A\u002A,12*%
X129500000Y-76580000D03*
D13*
X130335000Y-76580000D03*
D12*
%TO.P,REF\u002A\u002A,13*%
X129500000Y-74040000D03*
D13*
X130335000Y-74040000D03*
D12*
%TO.P,REF\u002A\u002A,14*%
X129500000Y-71500000D03*
D13*
X130335000Y-71500000D03*
%TD*%
D10*
%TO.P,REF\u002A\u002A,1*%
%TO.N,N/C*%
X130000000Y-63000000D03*
%TO.P,REF\u002A\u002A,2*%
X132540000Y-63000000D03*
%TO.P,REF\u002A\u002A,3*%
X135080000Y-63000000D03*
%TD*%
D14*
%TO.N,*%
X128000000Y-94000000D03*
X113500000Y-94000000D03*
%TD*%
D15*
%TO.N,*%
X107920000Y-69420000D02*
X110000000Y-71500000D01*
X110000000Y-71500000D02*
X114260000Y-71500000D01*
X104000000Y-71500000D02*
X104000000Y-62500000D01*
X114260000Y-76580000D02*
X109080000Y-76580000D01*
X131500000Y-59500000D02*
X132500000Y-60500000D01*
X133500000Y-69000000D02*
X130000000Y-65500000D01*
X132500000Y-60500000D02*
X132500000Y-62960000D01*
X130000000Y-65500000D02*
X130000000Y-63000000D01*
X133500000Y-72000000D02*
X133500000Y-69000000D01*
X131460000Y-74040000D02*
X133500000Y-72000000D01*
D16*
X133000000Y-62540000D02*
X132540000Y-63000000D01*
D15*
X107000000Y-59500000D02*
X131500000Y-59500000D01*
X137500000Y-65420000D02*
X135080000Y-63000000D01*
X134920000Y-76580000D02*
X137500000Y-74000000D01*
D16*
X129500000Y-74040000D02*
X131460000Y-74040000D01*
D15*
X129500000Y-76580000D02*
X134920000Y-76580000D01*
X137500000Y-74000000D02*
X137500000Y-65420000D01*
X109080000Y-76580000D02*
X104000000Y-71500000D01*
D16*
X132500000Y-62960000D02*
X132540000Y-63000000D01*
D15*
X130000000Y-63000000D02*
X113000000Y-63000000D01*
X104000000Y-62500000D02*
X107000000Y-59500000D01*
X107920000Y-63000000D02*
X107920000Y-69420000D01*
%TD*%
M02*
